<svg xmlns="http://www.w3.org/2000/svg" viewBox="0 0 152.65 187.44"><defs><style>.cls-1{fill:#4d342f;}</style></defs><title>Asset 1</title><g id="Layer_2" data-name="Layer 2"><g id="Layer_1-2" data-name="Layer 1"><path class="cls-1" d="M152.65,0c-7.18,15.16-25.48,20.19-42.2,20.86l2.22-5.31a3.76,3.76,0,0,0-1.76-4.88,3.62,3.62,0,0,0-4.89,2L103,20.89a99.79,99.79,0,0,1-14.67-1.54c-19-3.53-54.21-5.68-77.23,19.58-18.42,20.22-9.12,54.2-5.42,65.18a3.5,3.5,0,0,0,4.63,2.13h0a3.5,3.5,0,0,0,2-4.35C9,92,.49,60.94,16.24,43.65,37,20.9,69.48,23,87,26.23a102.24,102.24,0,0,0,13.39,1.52L40.8,187.44,107.52,27.89c15.95-.22,34.09-4,45.14-15.64ZM108.41,16.16c.5.19.28,2.09-.47,4.77q-1.41,0-2.79,0C106.55,17.93,107.85,16,108.41,16.16ZM101.69,33.8c-.57-.22-.2-2.67.82-6,1,0,2,0,2.95.05C103.88,31.53,102.32,34,101.69,33.8Z"/></g></g></svg>